<svg width="382" height="79" viewBox="0 0 382 79" fill="none" xmlns="http://www.w3.org/2000/svg">
<rect width="350" height="75" rx="20" fill="#F7F7F7"/>
<path d="M71.0975 16.9058C70.4903 16.9962 69.9487 17.2328 69.5686 17.5739C69.1885 17.9149 68.9944 18.3383 69.0206 18.7692V55.3077C68.9589 55.5691 68.9798 55.8367 69.0819 56.0919C69.184 56.3472 69.3648 56.584 69.6118 56.7859C69.8587 56.9878 70.166 57.1499 70.5122 57.2612C70.8584 57.3724 71.2353 57.43 71.6168 57.43C71.9982 57.43 72.3751 57.3724 72.7213 57.2612C73.0675 57.1499 73.3748 56.9878 73.6217 56.7859C73.8687 56.584 74.0495 56.3472 74.1516 56.0919C74.2537 55.8367 74.2746 55.5691 74.2129 55.3077V18.7692C74.2217 18.5124 74.1524 18.2572 74.0095 18.0202C73.8666 17.7832 73.6533 17.5698 73.3837 17.394C73.114 17.2181 72.7939 17.0837 72.4443 16.9996C72.0948 16.9155 71.7236 16.8835 71.3551 16.9058C71.2693 16.903 71.1833 16.903 71.0975 16.9058ZM37.8668 18.8288C37.2595 18.9192 36.718 19.1559 36.3378 19.497C35.9577 19.838 35.7636 20.2614 35.7898 20.6923V53.3846C35.7282 53.646 35.7491 53.9136 35.8512 54.1689C35.9532 54.4241 36.134 54.6609 36.381 54.8628C36.628 55.0647 36.9352 55.2269 37.2814 55.3381C37.6276 55.4493 38.0045 55.5069 38.386 55.5069C38.7674 55.5069 39.1443 55.4493 39.4906 55.3381C39.8368 55.2269 40.144 55.0647 40.391 54.8628C40.6379 54.6609 40.8187 54.4241 40.9208 54.1689C41.0229 53.9136 41.0438 53.646 40.9821 53.3846V20.6923C40.9909 20.4355 40.9216 20.1802 40.7787 19.9433C40.6358 19.7063 40.4226 19.4929 40.1529 19.3171C39.8832 19.1412 39.5631 19.0068 39.2136 18.9227C38.864 18.8386 38.4929 18.8066 38.1243 18.8288C38.0385 18.8261 37.9526 18.8261 37.8668 18.8288ZM62.7898 24.5981C62.1826 24.6885 61.641 24.9251 61.2609 25.2662C60.8808 25.6072 60.6867 26.0307 60.7129 26.4615V47.6154C60.6499 47.8771 60.6698 48.1453 60.7712 48.4012C60.8725 48.6571 61.053 48.8946 61.2999 49.0971C61.5469 49.2997 61.8545 49.4624 62.2012 49.574C62.5479 49.6857 62.9255 49.7435 63.3077 49.7435C63.6899 49.7435 64.0674 49.6857 64.4142 49.574C64.7609 49.4624 65.0684 49.2997 65.3154 49.0971C65.5624 48.8946 65.7428 48.6571 65.8442 48.4012C65.9456 48.1453 65.9655 47.8771 65.9024 47.6154V26.4615C65.9112 26.205 65.842 25.9502 65.6994 25.7135C65.5569 25.4768 65.3441 25.2636 65.075 25.0878C64.806 24.912 64.4866 24.7776 64.1377 24.6932C63.7888 24.6088 63.4183 24.5764 63.0501 24.5981C62.9625 24.5952 62.8775 24.5952 62.7898 24.5981ZM29.5591 26.5211C28.9518 26.6116 28.4103 26.8482 28.0302 27.1893C27.65 27.5303 27.4559 27.9537 27.4821 28.3846V45.6923C27.4191 45.9541 27.439 46.2222 27.5404 46.4781C27.6418 46.734 27.8222 46.9715 28.0692 47.174C28.3161 47.3766 28.6237 47.5393 28.9704 47.651C29.3171 47.7626 29.6947 47.8204 30.0769 47.8204C30.4591 47.8204 30.8367 47.7626 31.1834 47.651C31.5301 47.5393 31.8377 47.3766 32.0846 47.174C32.3316 46.9715 32.5121 46.734 32.6134 46.4781C32.7148 46.2222 32.7347 45.9541 32.6717 45.6923V28.3846C32.6804 28.1281 32.6112 27.8732 32.4687 27.6366C32.3261 27.3999 32.1133 27.1867 31.8443 27.0109C31.5752 26.8351 31.2558 26.7006 30.9069 26.6163C30.5581 26.5319 30.1875 26.4995 29.8194 26.5211C29.7317 26.5182 29.6467 26.5182 29.5591 26.5211ZM46.1744 28.4442C45.5672 28.5346 45.0256 28.7713 44.6455 29.1123C44.2654 29.4534 44.0713 29.8768 44.0975 30.3077V43.7692C44.0345 44.031 44.0544 44.2992 44.1558 44.555C44.2572 44.8109 44.4376 45.0484 44.6846 45.251C44.9315 45.4535 45.2391 45.6163 45.5858 45.7279C45.9325 45.8395 46.3101 45.8973 46.6923 45.8973C47.0745 45.8973 47.4521 45.8395 47.7988 45.7279C48.1455 45.6163 48.4531 45.4535 48.7 45.251C48.947 45.0484 49.1274 44.8109 49.2288 44.555C49.3302 44.2992 49.3501 44.031 49.2871 43.7692V30.3077C49.2958 30.0512 49.2266 29.7963 49.084 29.5596C48.9415 29.323 48.7287 29.1098 48.4597 28.934C48.1906 28.7582 47.8712 28.6237 47.5223 28.5393C47.1734 28.455 46.8029 28.4225 46.4348 28.4442C46.3471 28.4413 46.2621 28.4413 46.1744 28.4442ZM79.4052 28.4442C78.798 28.5346 78.2564 28.7713 77.8763 29.1123C77.4962 29.4534 77.3021 29.8768 77.3283 30.3077V43.7692C77.2666 44.0306 77.2875 44.2982 77.3896 44.5535C77.4917 44.8087 77.6725 45.0455 77.9195 45.2474C78.1664 45.4493 78.4737 45.6115 78.8199 45.7227C79.1661 45.8339 79.543 45.8915 79.9244 45.8915C80.3059 45.8915 80.6828 45.8339 81.029 45.7227C81.3752 45.6115 81.6825 45.4493 81.9294 45.2474C82.1764 45.0455 82.3572 44.8087 82.4593 44.5535C82.5614 44.2982 82.5823 44.0306 82.5206 43.7692V30.3077C82.5294 30.0508 82.4601 29.7956 82.3172 29.5586C82.1743 29.3217 81.961 29.1083 81.6913 28.9324C81.4217 28.7566 81.1016 28.6222 80.752 28.5381C80.4025 28.454 80.0313 28.422 79.6628 28.4442C79.577 28.4414 79.491 28.4414 79.4052 28.4442ZM21.2514 32.2904C20.6442 32.3808 20.1026 32.6174 19.7225 32.9585C19.3423 33.2995 19.1482 33.723 19.1744 34.1538V39.9231C19.1128 40.1845 19.1337 40.4521 19.2358 40.7073C19.3379 40.9626 19.5186 41.1994 19.7656 41.4012C20.0126 41.6031 20.3198 41.7653 20.666 41.8765C21.0122 41.9878 21.3891 42.0454 21.7706 42.0454C22.1521 42.0454 22.529 41.9878 22.8752 41.8765C23.2214 41.7653 23.5286 41.6031 23.7756 41.4012C24.0226 41.1994 24.2033 40.9626 24.3054 40.7073C24.4075 40.4521 24.4284 40.1845 24.3668 39.9231V34.1538C24.3755 33.897 24.3062 33.6418 24.1633 33.4048C24.0205 33.1678 23.8072 32.9544 23.5375 32.7786C23.2678 32.6027 22.9477 32.4684 22.5982 32.3842C22.2486 32.3001 21.8775 32.2681 21.5089 32.2904C21.4222 32.2875 21.3353 32.2875 21.2486 32.2904H21.2514ZM54.4821 32.2904C53.8749 32.3808 53.3333 32.6174 52.9532 32.9585C52.5731 33.2995 52.379 33.723 52.4052 34.1538V39.9231C52.3422 40.1848 52.3621 40.453 52.4635 40.7089C52.5648 40.9648 52.7453 41.2023 52.9923 41.4048C53.2392 41.6074 53.5468 41.7701 53.8935 41.8817C54.2402 41.9934 54.6178 42.0512 55 42.0512C55.3822 42.0512 55.7598 41.9934 56.1065 41.8817C56.4532 41.7701 56.7608 41.6074 57.0077 41.4048C57.2547 41.2023 57.4351 40.9648 57.5365 40.7089C57.6379 40.453 57.6578 40.1848 57.5948 39.9231V34.1538C57.6035 33.8974 57.5343 33.6425 57.3917 33.4058C57.2492 33.1691 57.0364 32.9559 56.7673 32.7801C56.4983 32.6043 56.1789 32.4699 55.83 32.3855C55.4811 32.3011 55.1106 32.2687 54.7424 32.2904C54.6548 32.2875 54.5698 32.2875 54.4821 32.2904ZM87.7129 32.2904C87.1057 32.3808 86.5641 32.6174 86.184 32.9585C85.8039 33.2995 85.6098 33.723 85.636 34.1538V39.9231C85.5743 40.1845 85.5952 40.4521 85.6973 40.7073C85.7994 40.9626 85.9802 41.1994 86.2271 41.4012C86.4741 41.6031 86.7814 41.7653 87.1276 41.8765C87.4738 41.9878 87.8507 42.0454 88.2321 42.0454C88.6136 42.0454 88.9905 41.9878 89.3367 41.8765C89.6829 41.7653 89.9902 41.6031 90.2371 41.4012C90.4841 41.1994 90.6649 40.9626 90.767 40.7073C90.869 40.4521 90.89 40.1845 90.8283 39.9231V34.1538C90.8371 33.897 90.7678 33.6418 90.6249 33.4048C90.482 33.1678 90.2687 32.9544 89.999 32.7786C89.7293 32.6027 89.4093 32.4684 89.0597 32.3842C88.7102 32.3001 88.339 32.2681 87.9704 32.2904C87.8846 32.2876 87.7987 32.2876 87.7129 32.2904Z" fill="#166237"/>
<path d="M122.56 45.08H118.52L105.2 22.2H115.12L120.72 34.24L126.32 22.2H134.12L122.56 45.08ZM126.08 42.36L133.68 27.24V51H126.08V42.36ZM107.8 30.36L115.4 43.8V51H107.8V30.36ZM146.302 35.28C146.302 34.5067 146.035 33.9867 145.502 33.72C144.968 33.4267 144.288 33.28 143.462 33.28C142.448 33.28 141.475 33.3733 140.542 33.56C139.608 33.7467 138.675 34.0133 137.742 34.36V28.76C138.942 28.4933 140.182 28.2533 141.462 28.04C142.768 27.8 144.075 27.68 145.382 27.68C146.848 27.68 148.195 27.8667 149.422 28.24C150.648 28.5867 151.635 29.2267 152.382 30.16C153.128 31.0933 153.502 32.4267 153.502 34.16V51H147.262L146.302 47.56V35.28ZM144.302 46.04V50.96C143.608 51.2533 142.862 51.4 142.062 51.4C140.995 51.4 139.995 51.1333 139.062 50.6C138.128 50.04 137.368 49.24 136.782 48.2C136.195 47.16 135.902 45.9067 135.902 44.44C135.902 42.2 136.675 40.4933 138.222 39.32C139.795 38.12 141.822 37.5067 144.302 37.48V41.72C143.875 41.9067 143.528 42.1733 143.262 42.52C143.022 42.84 142.902 43.2533 142.902 43.76C142.902 44.3733 143.035 44.88 143.302 45.28C143.568 45.6533 143.902 45.9067 144.302 46.04ZM155.306 33.4V28H158.306V22.96H165.506V28H169.866V33.4H155.306ZM158.306 35.04H165.506V43.36C165.506 44.1067 165.693 44.6533 166.066 45C166.466 45.3467 167.093 45.52 167.946 45.52C168.373 45.52 168.746 45.5067 169.066 45.48C169.386 45.4267 169.653 45.3733 169.866 45.32V50.64C169.226 50.8533 168.546 51.0267 167.826 51.16C167.133 51.32 166.426 51.4 165.706 51.4C163.253 51.4 161.4 50.88 160.146 49.84C158.92 48.7733 158.306 46.88 158.306 44.16V35.04ZM179.448 51H172.248V21.84L179.448 20.8V51ZM181.448 33.32V28.12C182.328 27.8267 183.182 27.68 184.008 27.68C185.848 27.68 187.368 28.2533 188.568 29.4C189.795 30.5467 190.408 32.2667 190.408 34.56V51H183.208V35.72C183.208 34.28 182.622 33.48 181.448 33.32ZM204.02 27.84L201.82 22.2H213.34C215.74 22.2 217.727 22.5333 219.3 23.2C220.874 23.84 222.047 24.9333 222.82 26.48C223.594 28.0267 223.98 30.1333 223.98 32.8C223.98 36.4 223.14 39.0267 221.46 40.68C219.78 42.3067 217.22 43.1467 213.78 43.2V37.12C214.394 36.8267 214.847 36.3333 215.14 35.64C215.46 34.92 215.62 33.9467 215.62 32.72C215.62 31.36 215.5 30.3333 215.26 29.64C215.047 28.9467 214.66 28.48 214.1 28.24C213.567 27.9733 212.807 27.84 211.82 27.84H204.02ZM204.02 29.84H211.82V51H204.02V29.84ZM234.914 34.92V28.64C236.14 27.7867 237.687 27.5333 239.554 27.88V34.6C238.807 34.6 238.034 34.6267 237.234 34.68C236.46 34.7333 235.687 34.8133 234.914 34.92ZM233.394 51H226.194V28H232.314L233.394 31.08V51ZM251.821 51.36V45.48C252.781 44.84 253.261 42.8667 253.261 39.56C253.261 36.1733 252.781 34.1867 251.821 33.6V27.72C255.021 27.8533 257.301 28.8533 258.661 30.72C260.021 32.56 260.701 35.4933 260.701 39.52C260.701 43.5467 260.021 46.4933 258.661 48.36C257.301 50.2 255.021 51.2 251.821 51.36ZM249.821 45.52V51.36C246.621 51.2 244.341 50.2 242.981 48.36C241.621 46.4933 240.941 43.5467 240.941 39.52C240.941 35.4933 241.621 32.56 242.981 30.72C244.341 28.88 246.621 27.88 249.821 27.72V33.56C249.314 33.88 248.941 34.52 248.701 35.48C248.487 36.44 248.381 37.8 248.381 39.56C248.381 42.9467 248.861 44.9333 249.821 45.52ZM263.108 28H270.308V56L263.108 57V28ZM262.908 20.8H270.508V26.24H262.908V20.8ZM283.258 51.4C281.685 51.4 280.245 51.2267 278.938 50.88C277.658 50.5333 276.552 49.92 275.618 49.04C274.685 48.16 273.965 46.9467 273.458 45.4C272.952 43.8533 272.698 41.88 272.698 39.48C272.698 35.7467 273.365 32.8933 274.698 30.92C276.032 28.92 278.178 27.84 281.138 27.68V33.56C280.552 34.4667 280.258 36.4 280.258 39.36C280.258 41.0933 280.392 42.4267 280.658 43.36C280.925 44.2933 281.432 44.9333 282.178 45.28C282.952 45.6267 284.045 45.8 285.458 45.8C286.072 45.8 286.698 45.7467 287.338 45.64C288.005 45.5333 288.645 45.4133 289.258 45.28V50.72C288.325 50.9067 287.338 51.0667 286.298 51.2C285.285 51.3333 284.272 51.4 283.258 51.4ZM282.258 41.72V37.28H283.578C283.578 36.6667 283.552 36.0133 283.498 35.32C283.472 34.6267 283.338 34.0533 283.098 33.6V27.72C285.632 27.9333 287.458 28.8533 288.578 30.48C289.698 32.08 290.258 34.3467 290.258 37.28C290.258 38.0267 290.232 38.8 290.178 39.6C290.125 40.3733 290.032 41.08 289.898 41.72H282.258ZM299.124 38.4H291.684C291.79 36.3467 292.15 34.6267 292.764 33.24C293.404 31.8533 294.23 30.76 295.244 29.96C296.284 29.1333 297.43 28.5467 298.684 28.2C299.964 27.8533 301.284 27.68 302.644 27.68C303.577 27.68 304.43 27.7467 305.204 27.88C305.977 28.0133 306.777 28.2133 307.604 28.48V37.48H303.484L302.684 33.32C301.59 33.32 300.737 33.6933 300.124 34.44C299.537 35.1867 299.204 36.5067 299.124 38.4ZM291.644 40.44H299.124C299.23 42.36 299.657 43.7067 300.404 44.48C301.177 45.2533 302.19 45.64 303.444 45.64C304.724 45.6133 306.164 45.4 307.764 45V50.68C306.937 50.92 305.964 51.0933 304.844 51.2C303.724 51.3333 302.697 51.4 301.764 51.4C299.924 51.4 298.257 51.0933 296.764 50.48C295.27 49.84 294.07 48.72 293.164 47.12C292.257 45.52 291.75 43.2933 291.644 40.44ZM309.056 33.4V28H312.056V22.96H319.256V28H323.616V33.4H309.056ZM312.056 35.04H319.256V43.36C319.256 44.1067 319.443 44.6533 319.816 45C320.216 45.3467 320.843 45.52 321.696 45.52C322.123 45.52 322.496 45.5067 322.816 45.48C323.136 45.4267 323.403 45.3733 323.616 45.32V50.64C322.976 50.8533 322.296 51.0267 321.576 51.16C320.883 51.32 320.176 51.4 319.456 51.4C317.003 51.4 315.15 50.88 313.896 49.84C312.67 48.7733 312.056 46.88 312.056 44.16V35.04Z" fill="#166237"/>
</svg>
